<svg xmlns="http://www.w3.org/2000/svg" width="144" height="144" viewBox="0 0 144 144">
  <g transform="translate(-888 -1008)">
    <g transform="translate(0 -10)">
      <path d="M70,0a70,70,0,1,0,70,70A70,70,0,0,0,70,0m0-2a71.673,71.673,0,0,1,40.257,12.3,72.2,72.2,0,0,1,26.084,31.676,71.908,71.908,0,0,1-6.639,68.284,72.2,72.2,0,0,1-31.676,26.084A71.908,71.908,0,0,1,29.743,129.7,72.2,72.2,0,0,1,3.659,98.026,71.908,71.908,0,0,1,10.3,29.743,72.2,72.2,0,0,1,41.974,3.659,71.551,71.551,0,0,1,70-2Z" transform="translate(890 1020)" fill="#9AC6C5"/>
      <path d="M50,7.917A7.926,7.926,0,0,0,43.084,11.9L6.989,73.979A8,8,0,0,0,13.9,86H86.1a8,8,0,0,0,6.916-12.021L56.916,11.9A7.926,7.926,0,0,0,50,7.917m0-2a9.9,9.9,0,0,1,8.645,4.974l36.1,62.083A10,10,0,0,1,86.1,88H13.9A10,10,0,0,1,5.26,72.974l36.1-62.083A9.9,9.9,0,0,1,50,5.917Z" transform="translate(1008 1146) rotate(180)" fill="#9AC6C5"/>
    </g>
  </g>
</svg>