<svg xmlns="http://www.w3.org/2000/svg" width="144" height="144" viewBox="0 0 144 144">
  <g transform="translate(2 2)">
    <path d="M70,0a70,70,0,1,0,70,70A70,70,0,0,0,70,0m0-2a71.673,71.673,0,0,1,40.257,12.3,72.2,72.2,0,0,1,26.084,31.676,71.908,71.908,0,0,1-6.639,68.284,72.2,72.2,0,0,1-31.676,26.084A71.908,71.908,0,0,1,29.743,129.7,72.2,72.2,0,0,1,3.659,98.026,71.908,71.908,0,0,1,10.3,29.743,72.2,72.2,0,0,1,41.974,3.659,71.551,71.551,0,0,1,70-2Z" fill="#9AC6C5"/>
    <path d="M43.084,11.9a8,8,0,0,1,13.832,0l36.1,62.083A8,8,0,0,1,86.1,86H13.9A8,8,0,0,1,6.989,73.979Z" transform="translate(18 14)" fill="#9AC6C5"/>
  </g>
</svg>